<svg width="169" height="48" viewBox="0 0 169 48" fill="none" xmlns="http://www.w3.org/2000/svg">
<path d="M2.19531 25.6875L1.96094 26.1562L1.72656 26.6484L0.765625 25.9219L1 25.4297C1.39062 24.6328 1.71094 23.8359 1.96094 23.0391C2.22656 22.2266 2.4375 21.4688 2.59375 20.7656C2.76562 20.0625 2.90625 19.4453 3.01562 18.9141C3.125 18.3828 3.23438 18 3.34375 17.7656C3.4375 17.5781 3.57031 17.4297 3.74219 17.3203C3.92969 17.1953 4.11719 17.0938 4.30469 17.0156C4.50781 16.9375 4.69531 16.8828 4.86719 16.8516C5.05469 16.8203 5.1875 16.8047 5.26562 16.8047C5.60938 16.8047 5.83594 16.875 5.94531 17.0156C6.07031 17.1562 6.13281 17.4062 6.13281 17.7656C6.13281 17.9375 6.09375 18.3672 6.01562 19.0547C5.95312 19.7266 5.875 20.5781 5.78125 21.6094C5.70312 22.625 5.625 23.7734 5.54688 25.0547C5.48438 26.3203 5.45312 27.6328 5.45312 28.9922C5.45312 29.9766 5.5 30.7578 5.59375 31.3359C5.6875 31.8984 5.80469 32.3203 5.94531 32.6016C6.10156 32.8828 6.26562 33.0625 6.4375 33.1406C6.625 33.2188 6.8125 33.2578 7 33.2578C7.25 33.2578 7.53125 33.1484 7.84375 32.9297C8.15625 32.7109 8.52344 32.3281 8.94531 31.7812C9.36719 31.2188 9.85156 30.4688 10.3984 29.5312C10.9453 28.5781 11.5859 27.375 12.3203 25.9219L12.5781 25.4297L13.5391 26.1562L13.2812 26.6484C12.6875 27.8047 12.0938 28.9453 11.5 30.0703C10.9219 31.1953 10.3281 32.1953 9.71875 33.0703C9.125 33.9453 8.52344 34.6562 7.91406 35.2031C7.30469 35.7344 6.69531 36 6.08594 36C5.44531 36 4.89062 35.875 4.42188 35.625C3.96875 35.3594 3.58594 34.9297 3.27344 34.3359C2.97656 33.7422 2.75 32.9609 2.59375 31.9922C2.45312 31.0078 2.38281 29.7969 2.38281 28.3594C2.38281 27.9531 2.38281 27.5312 2.38281 27.0938C2.38281 26.6406 2.39844 26.1719 2.42969 25.6875H2.19531ZM7 12C7 12.5469 6.8125 13.0078 6.4375 13.3828C6.07812 13.7422 5.625 13.9219 5.07812 13.9219C4.54688 13.9219 4.09375 13.7422 3.71875 13.3828C3.34375 13.0078 3.15625 12.5469 3.15625 12C3.15625 11.4688 3.34375 11.0156 3.71875 10.6406C4.09375 10.2656 4.54688 10.0781 5.07812 10.0781C5.625 10.0781 6.07812 10.2656 6.4375 10.6406C6.8125 11.0156 7 11.4688 7 12ZM17.3359 36C16.3828 36 15.5547 35.7969 14.8516 35.3906C14.1641 34.9844 13.5938 34.4375 13.1406 33.75C12.6875 33.0469 12.3516 32.2422 12.1328 31.3359C11.9141 30.4297 11.8047 29.4688 11.8047 28.4531C11.8047 27.5625 11.8906 26.6562 12.0625 25.7344C12.2344 24.8125 12.4766 23.9219 12.7891 23.0625C13.1172 22.1875 13.5234 21.375 14.0078 20.625C14.4922 19.8594 15.0469 19.1953 15.6719 18.6328C16.2969 18.0703 16.9922 17.625 17.7578 17.2969C18.5391 16.9688 19.375 16.8047 20.2656 16.8047C21.2812 16.8047 22.1406 17.0312 22.8438 17.4844C23.5625 17.9375 24.1406 18.4922 24.5781 19.1484C24.5938 16.1953 24.7422 13.5859 25.0234 11.3203C25.3047 9.05469 25.6953 7.15625 26.1953 5.625C26.7109 4.09375 27.3203 2.9375 28.0234 2.15625C28.7266 1.35938 29.5 0.960938 30.3438 0.960938C30.6406 0.960938 30.9062 1 31.1406 1.07812C31.3906 1.14063 31.5938 1.26562 31.75 1.45312C31.9219 1.64062 32.0469 1.89844 32.125 2.22656C32.2188 2.53906 32.2656 2.94531 32.2656 3.44531C32.2656 4.47656 32.1641 5.66406 31.9609 7.00781C31.7578 8.33594 31.4688 9.78906 31.0938 11.3672C30.7188 12.9297 30.2578 14.6016 29.7109 16.3828C29.1797 18.1484 28.5859 19.9844 27.9297 21.8906C27.9453 23.5625 27.9688 25.0078 28 26.2266C28.0312 27.4453 28.0703 28.4766 28.1172 29.3203C28.1797 30.1641 28.25 30.8516 28.3281 31.3828C28.4219 31.9141 28.5234 32.3281 28.6328 32.625C28.7578 32.9062 28.8984 33.1016 29.0547 33.2109C29.2266 33.3047 29.4141 33.3516 29.6172 33.3516C29.9766 33.3516 30.3359 33.1953 30.6953 32.8828C31.0703 32.5547 31.4688 32.0781 31.8906 31.4531C32.3125 30.8125 32.7656 30.0312 33.25 29.1094C33.75 28.1875 34.2969 27.125 34.8906 25.9219L35.1484 25.4297L36.1094 26.1562L35.8516 26.6484C34.9453 28.4766 34.1484 29.9922 33.4609 31.1953C32.7734 32.3828 32.1406 33.3359 31.5625 34.0547C31 34.7734 30.4609 35.2812 29.9453 35.5781C29.4297 35.8594 28.8906 36 28.3281 36C27.7812 36 27.3047 35.8672 26.8984 35.6016C26.5078 35.3203 26.1719 34.8906 25.8906 34.3125C25.6094 33.7188 25.3828 32.9688 25.2109 32.0625C25.0391 31.1406 24.9062 30.0391 24.8125 28.7578C24.2656 29.8516 23.7031 30.8438 23.125 31.7344C22.5469 32.625 21.9453 33.3906 21.3203 34.0312C20.7109 34.6562 20.0703 35.1406 19.3984 35.4844C18.7266 35.8281 18.0391 36 17.3359 36ZM20.7344 18C19.875 18 19.125 18.2656 18.4844 18.7969C17.8438 19.3125 17.3125 19.9922 16.8906 20.8359C16.4688 21.6641 16.1562 22.6016 15.9531 23.6484C15.75 24.6953 15.6484 25.7422 15.6484 26.7891C15.6484 27.6484 15.7109 28.4766 15.8359 29.2734C15.9766 30.0547 16.1797 30.75 16.4453 31.3594C16.7266 31.9688 17.0625 32.4531 17.4531 32.8125C17.8438 33.1719 18.2969 33.3516 18.8125 33.3516C19.3125 33.3516 19.7969 33.2266 20.2656 32.9766C20.75 32.7266 21.2266 32.3281 21.6953 31.7812C22.1641 31.2188 22.6406 30.5 23.125 29.625C23.6094 28.7344 24.125 27.6562 24.6719 26.3906C24.6406 25.6406 24.6172 24.8438 24.6016 24C24.5859 23.1406 24.5781 22.2266 24.5781 21.2578C24.2344 20.2422 23.7109 19.4453 23.0078 18.8672C22.3203 18.2891 21.5625 18 20.7344 18ZM30.5781 4.3125C30.5781 3.59375 30.4922 3.09375 30.3203 2.8125C30.1641 2.53125 29.9766 2.39062 29.7578 2.39062C29.3828 2.39062 29.0781 2.75781 28.8438 3.49219C28.6094 4.21094 28.4219 5.1875 28.2812 6.42188C28.1562 7.65625 28.0625 9.08594 28 10.7109C27.9531 12.3359 27.9297 14.0469 27.9297 15.8438V18.4219C28.4141 16.8438 28.8281 15.4219 29.1719 14.1562C29.5156 12.8906 29.7891 11.7109 29.9922 10.6172C30.1953 9.52344 30.3438 8.46875 30.4375 7.45312C30.5312 6.4375 30.5781 5.39062 30.5781 4.3125ZM42.0859 33.3516C42.6328 33.3516 43.1875 33.2109 43.75 32.9297C44.3281 32.6484 44.9062 32.2109 45.4844 31.6172C46.0781 31.0234 46.6875 30.2578 47.3125 29.3203C47.9375 28.3672 48.5781 27.2344 49.2344 25.9219L49.4688 25.4297L50.4297 26.1562L50.1953 26.6484C49.3516 28.3203 48.5078 29.75 47.6641 30.9375C46.8359 32.125 46.0156 33.0938 45.2031 33.8438C44.4062 34.5938 43.6172 35.1406 42.8359 35.4844C42.0547 35.8281 41.3047 36 40.5859 36C39.5703 36 38.6641 35.7891 37.8672 35.3672C37.0703 34.9453 36.3984 34.375 35.8516 33.6562C35.3047 32.9219 34.8906 32.0781 34.6094 31.125C34.3125 30.1562 34.1641 29.1406 34.1641 28.0781C34.1641 26.3906 34.3984 24.8594 34.8672 23.4844C35.3203 22.0938 35.9297 20.9062 36.6953 19.9219C37.4766 18.9375 38.3594 18.1719 39.3438 17.625C40.3281 17.0781 41.3516 16.8047 42.4141 16.8047C43.4922 16.8047 44.3125 17.0781 44.875 17.625C45.4531 18.1719 45.7422 18.8594 45.7422 19.6875C45.7422 20.4844 45.5156 21.2344 45.0625 21.9375C44.6094 22.625 43.9922 23.3047 43.2109 23.9766C42.4453 24.6328 41.5547 25.2891 40.5391 25.9453C39.5234 26.5859 38.4531 27.25 37.3281 27.9375C37.4375 28.75 37.625 29.4922 37.8906 30.1641C38.1562 30.8203 38.4922 31.3906 38.8984 31.875C39.3047 32.3438 39.7734 32.7109 40.3047 32.9766C40.8359 33.2266 41.4297 33.3516 42.0859 33.3516ZM42.8125 20.3906C42.8125 19.7656 42.6406 19.2734 42.2969 18.9141C41.9688 18.5547 41.5625 18.375 41.0781 18.375C40.6719 18.375 40.2422 18.5234 39.7891 18.8203C39.3359 19.1016 38.9219 19.5625 38.5469 20.2031C38.1719 20.8281 37.8594 21.6328 37.6094 22.6172C37.3594 23.6016 37.2344 24.7969 37.2344 26.2031V26.7422C37.7656 26.4609 38.3516 26.0938 38.9922 25.6406C39.6484 25.1719 40.2578 24.6562 40.8203 24.0938C41.3828 23.5312 41.8516 22.9375 42.2266 22.3125C42.6172 21.6719 42.8125 21.0312 42.8125 20.3906ZM63.6719 30.1875C63.6719 31.0781 63.75 31.8281 63.9062 32.4375C64.0625 33.0469 64.3359 33.3516 64.7266 33.3516C64.9609 33.3516 65.2109 33.2422 65.4766 33.0234C65.7578 32.7891 66.0781 32.4141 66.4375 31.8984C66.7969 31.3828 67.2031 30.7188 67.6562 29.9062C68.125 29.0781 68.6562 28.0703 69.25 26.8828L69.9531 25.4297L70.9141 26.1562L70.2109 27.6094C69.5547 28.9219 68.9375 30.1016 68.3594 31.1484C67.7969 32.1797 67.2578 33.0547 66.7422 33.7734C66.2266 34.4922 65.7188 35.0469 65.2188 35.4375C64.7344 35.8125 64.25 36 63.7656 36C63.25 36 62.8125 35.8594 62.4531 35.5781C62.1094 35.2969 61.8203 34.9141 61.5859 34.4297C61.3516 33.9297 61.1719 33.3594 61.0469 32.7188C60.9219 32.0625 60.8359 31.3672 60.7891 30.6328C60.4141 31.3828 60 32.0859 59.5469 32.7422C59.0938 33.3828 58.6172 33.9453 58.1172 34.4297C57.6328 34.9141 57.125 35.2969 56.5938 35.5781C56.0625 35.8594 55.5312 36 55 36C54.2188 36 53.4609 35.8359 52.7266 35.5078C51.9922 35.1797 51.3359 34.6797 50.7578 34.0078C50.1953 33.3359 49.7422 32.4922 49.3984 31.4766C49.0547 30.4453 48.8828 29.2344 48.8828 27.8438C48.8828 26.2188 49.0938 24.7344 49.5156 23.3906C49.9375 22.0312 50.5078 20.8672 51.2266 19.8984C51.9453 18.9141 52.7734 18.1562 53.7109 17.625C54.6484 17.0781 55.6328 16.8047 56.6641 16.8047C57.2891 16.8047 57.8672 16.9453 58.3984 17.2266C58.9297 17.5078 59.3906 17.8516 59.7812 18.2578C60.1875 18.6484 60.5234 19.0703 60.7891 19.5234C61.0547 19.9609 61.2344 20.3359 61.3281 20.6484L61.6094 18.375C61.6406 18.0781 61.7812 17.8281 62.0312 17.625C62.2969 17.4219 62.5859 17.2656 62.8984 17.1562C63.2109 17.0312 63.5156 16.9453 63.8125 16.8984C64.1094 16.8359 64.3203 16.8047 64.4453 16.8047C64.6328 16.8047 64.7578 16.8359 64.8203 16.8984C64.8828 16.9609 64.9141 17.0859 64.9141 17.2734C64.9141 17.5078 64.8438 17.9844 64.7031 18.7031C64.5781 19.4062 64.4375 20.3125 64.2812 21.4219C64.1406 22.5156 64 23.8047 63.8594 25.2891C63.7344 26.7734 63.6719 28.4062 63.6719 30.1875ZM61.0938 24C61.0938 23.2812 60.9844 22.5781 60.7656 21.8906C60.5469 21.1875 60.25 20.5703 59.875 20.0391C59.5 19.4922 59.0625 19.0547 58.5625 18.7266C58.0781 18.3984 57.5625 18.2344 57.0156 18.2344C56.3438 18.2344 55.7109 18.4297 55.1172 18.8203C54.5391 19.1953 54.0312 19.7344 53.5938 20.4375C53.1719 21.125 52.8359 21.9609 52.5859 22.9453C52.3359 23.9141 52.2109 24.9844 52.2109 26.1562C52.2109 28.5 52.5781 30.2891 53.3125 31.5234C54.0469 32.7422 55.0234 33.3516 56.2422 33.3516C56.7734 33.3516 57.3203 33.1406 57.8828 32.7188C58.4609 32.2812 58.9844 31.6641 59.4531 30.8672C59.9375 30.0547 60.3281 29.0703 60.625 27.9141C60.9375 26.7578 61.0938 25.4531 61.0938 24ZM77.5938 18.4688C77.1406 18.4688 76.7031 18.6328 76.2812 18.9609C75.875 19.2734 75.4844 19.7109 75.1094 20.2734C74.7344 20.8203 74.3672 21.4688 74.0078 22.2188C73.6641 22.9531 73.3203 23.7422 72.9766 24.5859V24.8672C72.9297 26.2422 72.8828 27.7031 72.8359 29.25C72.8047 30.7969 72.7891 32.4844 72.7891 34.3125C72.7891 34.625 72.6797 34.8906 72.4609 35.1094C72.2578 35.3125 72.0156 35.4844 71.7344 35.625C71.4531 35.75 71.1641 35.8438 70.8672 35.9062C70.5703 35.9688 70.3281 36 70.1406 36C69.9062 36 69.6875 35.9297 69.4844 35.7891C69.2812 35.6484 69.1797 35.3359 69.1797 34.8516C69.1797 34.6172 69.2031 34.3281 69.25 33.9844C69.2969 33.625 69.3594 33.2422 69.4375 32.8359C69.5 32.4297 69.5781 32.0156 69.6719 31.5938C69.75 31.1562 69.8281 30.75 69.9062 30.375C69.9062 29.0469 69.9062 27.8516 69.9062 26.7891C69.8906 25.7266 69.8828 24.7812 69.8828 23.9531C69.8828 23.125 69.8828 22.3984 69.8828 21.7734C69.8672 21.1484 69.8594 20.6094 69.8594 20.1562C69.8594 19.4062 69.875 18.8594 69.9062 18.5156C69.9219 18.1562 69.9531 17.9062 70 17.7656C70.0781 17.5469 70.2188 17.375 70.4219 17.25C70.6406 17.125 70.8672 17.0312 71.1016 16.9688C71.3359 16.8906 71.5703 16.8438 71.8047 16.8281C72.0391 16.8125 72.2188 16.8047 72.3438 16.8047C72.6406 16.8047 72.8359 16.8906 72.9297 17.0625C73.0234 17.2344 73.0703 17.5 73.0703 17.8594C73.0703 18.6719 73.0703 19.4062 73.0703 20.0625C73.0703 20.7188 73.0547 21.375 73.0234 22.0312C73.3203 21.3281 73.6641 20.6641 74.0547 20.0391C74.4609 19.3984 74.9062 18.8438 75.3906 18.375C75.875 17.8906 76.3828 17.5078 76.9141 17.2266C77.4609 16.9453 78.0234 16.8047 78.6016 16.8047C79.3047 16.8047 79.8828 16.9531 80.3359 17.25C80.8047 17.5312 81.1719 17.9297 81.4375 18.4453C81.7188 18.9609 81.9219 19.5703 82.0469 20.2734C82.1875 20.9609 82.2812 21.7109 82.3281 22.5234C82.7656 21.7266 83.2344 20.9844 83.7344 20.2969C84.25 19.5938 84.7891 18.9844 85.3516 18.4688C85.9297 17.9531 86.5312 17.5469 87.1562 17.25C87.7969 16.9531 88.4609 16.8047 89.1484 16.8047C90.3359 16.8047 91.2031 17.1797 91.75 17.9297C92.2969 18.6641 92.5703 19.6641 92.5703 20.9297C92.5703 21.7266 92.5078 22.6172 92.3828 23.6016C92.2578 24.5859 92.125 25.5859 91.9844 26.6016C91.8438 27.6016 91.7109 28.5859 91.5859 29.5547C91.4609 30.5234 91.3984 31.4062 91.3984 32.2031C91.3984 33.1719 91.6406 33.6562 92.125 33.6562C92.375 33.6562 92.6484 33.5078 92.9453 33.2109C93.2422 32.8984 93.5781 32.4297 93.9531 31.8047C94.3438 31.1641 94.7891 30.3594 95.2891 29.3906C95.8047 28.4219 96.3984 27.2656 97.0703 25.9219L97.3047 25.4297L98.2656 26.1562L98.0312 26.6484C97.1094 28.4922 96.3203 30.0156 95.6641 31.2188C95.0234 32.4219 94.4453 33.3828 93.9297 34.1016C93.4141 34.8047 92.9219 35.2969 92.4531 35.5781C92 35.8594 91.4922 36 90.9297 36C90.6016 36 90.2812 35.9531 89.9688 35.8594C89.6562 35.7656 89.3828 35.6016 89.1484 35.3672C88.9141 35.1328 88.7266 34.8203 88.5859 34.4297C88.4453 34.0234 88.375 33.5078 88.375 32.8828C88.375 31.9453 88.4375 30.8906 88.5625 29.7188C88.6875 28.5469 88.8281 27.375 88.9844 26.2031C89.1406 25.0312 89.2812 23.9297 89.4062 22.8984C89.5312 21.8516 89.5938 21 89.5938 20.3438C89.5938 19.7656 89.4688 19.3047 89.2188 18.9609C88.9688 18.6016 88.5938 18.4219 88.0938 18.4219C87.5938 18.4219 87.0703 18.6172 86.5234 19.0078C85.9922 19.3984 85.4688 19.9062 84.9531 20.5312C84.4531 21.1406 83.9766 21.8281 83.5234 22.5938C83.0859 23.3594 82.7031 24.1172 82.375 24.8672C82.375 26.5078 82.3594 27.9453 82.3281 29.1797C82.2969 30.3984 82.25 31.4297 82.1875 32.2734C82.1406 33.1172 82.0703 33.7891 81.9766 34.2891C81.8828 34.7734 81.7812 35.1016 81.6719 35.2734C81.5938 35.3828 81.4609 35.4844 81.2734 35.5781C81.0859 35.6719 80.875 35.75 80.6406 35.8125C80.4219 35.875 80.2031 35.9219 79.9844 35.9531C79.7812 35.9844 79.625 36 79.5156 36C79.2656 36 79.0469 35.9297 78.8594 35.7891C78.6875 35.6328 78.6016 35.3359 78.6016 34.8984C78.6016 34.6953 78.6172 34.4219 78.6484 34.0781C78.6953 33.7344 78.75 33.3516 78.8125 32.9297C78.875 32.5078 78.9453 32.0547 79.0234 31.5703C79.1016 31.0859 79.1797 30.5938 79.2578 30.0938C79.2734 29.625 79.2891 29.1016 79.3047 28.5234C79.3203 27.9453 79.3359 27.375 79.3516 26.8125C79.3672 26.2344 79.375 25.6875 79.375 25.1719C79.3906 24.6406 79.3984 24.1875 79.3984 23.8125C79.3984 23.0156 79.375 22.2891 79.3281 21.6328C79.2812 20.9766 79.1875 20.4141 79.0469 19.9453C78.9219 19.4766 78.7422 19.1172 78.5078 18.8672C78.2734 18.6016 77.9688 18.4688 77.5938 18.4688ZM111.531 30.1875C111.531 31.0781 111.609 31.8281 111.766 32.4375C111.922 33.0469 112.195 33.3516 112.586 33.3516C112.82 33.3516 113.07 33.2422 113.336 33.0234C113.617 32.7891 113.938 32.4141 114.297 31.8984C114.656 31.3828 115.062 30.7188 115.516 29.9062C115.984 29.0781 116.516 28.0703 117.109 26.8828L117.812 25.4297L118.773 26.1562L118.07 27.6094C117.414 28.9219 116.797 30.1016 116.219 31.1484C115.656 32.1797 115.117 33.0547 114.602 33.7734C114.086 34.4922 113.578 35.0469 113.078 35.4375C112.594 35.8125 112.109 36 111.625 36C111.109 36 110.672 35.8594 110.312 35.5781C109.969 35.2969 109.68 34.9141 109.445 34.4297C109.211 33.9297 109.031 33.3594 108.906 32.7188C108.781 32.0625 108.695 31.3672 108.648 30.6328C108.273 31.3828 107.859 32.0859 107.406 32.7422C106.953 33.3828 106.477 33.9453 105.977 34.4297C105.492 34.9141 104.984 35.2969 104.453 35.5781C103.922 35.8594 103.391 36 102.859 36C102.078 36 101.32 35.8359 100.586 35.5078C99.8516 35.1797 99.1953 34.6797 98.6172 34.0078C98.0547 33.3359 97.6016 32.4922 97.2578 31.4766C96.9141 30.4453 96.7422 29.2344 96.7422 27.8438C96.7422 26.2188 96.9531 24.7344 97.375 23.3906C97.7969 22.0312 98.3672 20.8672 99.0859 19.8984C99.8047 18.9141 100.633 18.1562 101.57 17.625C102.508 17.0781 103.492 16.8047 104.523 16.8047C105.148 16.8047 105.727 16.9453 106.258 17.2266C106.789 17.5078 107.25 17.8516 107.641 18.2578C108.047 18.6484 108.383 19.0703 108.648 19.5234C108.914 19.9609 109.094 20.3359 109.188 20.6484L109.469 18.375C109.5 18.0781 109.641 17.8281 109.891 17.625C110.156 17.4219 110.445 17.2656 110.758 17.1562C111.07 17.0312 111.375 16.9453 111.672 16.8984C111.969 16.8359 112.18 16.8047 112.305 16.8047C112.492 16.8047 112.617 16.8359 112.68 16.8984C112.742 16.9609 112.773 17.0859 112.773 17.2734C112.773 17.5078 112.703 17.9844 112.562 18.7031C112.438 19.4062 112.297 20.3125 112.141 21.4219C112 22.5156 111.859 23.8047 111.719 25.2891C111.594 26.7734 111.531 28.4062 111.531 30.1875ZM108.953 24C108.953 23.2812 108.844 22.5781 108.625 21.8906C108.406 21.1875 108.109 20.5703 107.734 20.0391C107.359 19.4922 106.922 19.0547 106.422 18.7266C105.938 18.3984 105.422 18.2344 104.875 18.2344C104.203 18.2344 103.57 18.4297 102.977 18.8203C102.398 19.1953 101.891 19.7344 101.453 20.4375C101.031 21.125 100.695 21.9609 100.445 22.9453C100.195 23.9141 100.07 24.9844 100.07 26.1562C100.07 28.5 100.438 30.2891 101.172 31.5234C101.906 32.7422 102.883 33.3516 104.102 33.3516C104.633 33.3516 105.18 33.1406 105.742 32.7188C106.32 32.2812 106.844 31.6641 107.312 30.8672C107.797 30.0547 108.188 29.0703 108.484 27.9141C108.797 26.7578 108.953 25.4531 108.953 24ZM124.352 44.8828C124.352 44.1953 124.477 43.5 124.727 42.7969C124.992 42.0938 125.352 41.375 125.805 40.6406C126.258 39.9062 126.781 39.1406 127.375 38.3438C127.984 37.5625 128.641 36.75 129.344 35.9062V31.4766C128.969 32.2109 128.547 32.8594 128.078 33.4219C127.609 33.9844 127.109 34.4609 126.578 34.8516C126.062 35.2266 125.523 35.5156 124.961 35.7188C124.414 35.9062 123.875 36 123.344 36C122.609 36 121.898 35.8203 121.211 35.4609C120.539 35.1016 119.938 34.5625 119.406 33.8438C118.875 33.1094 118.453 32.1875 118.141 31.0781C117.828 29.9688 117.672 28.6641 117.672 27.1641C117.672 25.8984 117.82 24.6484 118.117 23.4141C118.414 22.1797 118.859 21.0781 119.453 20.1094C120.047 19.125 120.781 18.3281 121.656 17.7188C122.531 17.1094 123.555 16.8047 124.727 16.8047C125.648 16.8047 126.508 16.9922 127.305 17.3672C128.117 17.7422 128.797 18.2891 129.344 19.0078V18.7266C129.344 18.4297 129.43 18.1641 129.602 17.9297C129.789 17.6797 130.016 17.4766 130.281 17.3203C130.562 17.1484 130.852 17.0234 131.148 16.9453C131.461 16.8516 131.734 16.8047 131.969 16.8047C132.234 16.8047 132.422 16.8438 132.531 16.9219C132.641 16.9844 132.695 17.1016 132.695 17.2734C132.695 17.5234 132.664 18.0859 132.602 18.9609C132.539 19.8359 132.508 21.1172 132.508 22.8047V32.9766C132.898 32.4922 133.312 31.9531 133.75 31.3594C134.188 30.7656 134.625 30.1484 135.062 29.5078C135.5 28.8516 135.922 28.1797 136.328 27.4922C136.75 26.8047 137.141 26.1172 137.5 25.4297L137.734 24.9609L138.695 25.6875L138.461 26.1562C138.086 26.9062 137.648 27.6875 137.148 28.5C136.664 29.2969 136.148 30.0859 135.602 30.8672C135.07 31.6328 134.531 32.375 133.984 33.0938C133.453 33.7969 132.961 34.4297 132.508 34.9922V40.0781C132.508 41.5156 132.375 42.7344 132.109 43.7344C131.859 44.75 131.508 45.5703 131.055 46.1953C130.617 46.8359 130.086 47.2969 129.461 47.5781C128.852 47.8594 128.188 48 127.469 48C126.578 48 125.836 47.7188 125.242 47.1562C124.648 46.6094 124.352 45.8516 124.352 44.8828ZM124.773 33.6094C125.258 33.6094 125.734 33.4688 126.203 33.1875C126.688 32.9062 127.133 32.5469 127.539 32.1094C127.945 31.6719 128.305 31.1953 128.617 30.6797C128.945 30.1484 129.188 29.6328 129.344 29.1328V22.5234C129.344 21.8203 129.234 21.1875 129.016 20.625C128.797 20.0469 128.508 19.5625 128.148 19.1719C127.789 18.7656 127.375 18.4531 126.906 18.2344C126.453 18.0156 125.984 17.9062 125.5 17.9062C124.75 17.9062 124.094 18.1328 123.531 18.5859C122.969 19.0234 122.5 19.6094 122.125 20.3438C121.75 21.0625 121.469 21.8906 121.281 22.8281C121.109 23.7656 121.023 24.7188 121.023 25.6875C121.023 26.8906 121.094 27.9766 121.234 28.9453C121.391 29.9141 121.625 30.75 121.938 31.4531C122.25 32.1406 122.641 32.6719 123.109 33.0469C123.578 33.4219 124.133 33.6094 124.773 33.6094ZM127.211 46.5703C127.461 46.5703 127.711 46.5156 127.961 46.4062C128.227 46.3125 128.461 46.0859 128.664 45.7266C128.867 45.3672 129.031 44.8359 129.156 44.1328C129.281 43.4297 129.344 42.4766 129.344 41.2734V37.7812C128.266 39.0781 127.383 40.3047 126.695 41.4609C126.023 42.6328 125.688 43.7266 125.688 44.7422C125.688 45.2266 125.82 45.6484 126.086 46.0078C126.352 46.3828 126.727 46.5703 127.211 46.5703ZM138.93 25.6875L138.695 26.1562L138.461 26.6484L137.5 25.9219L137.734 25.4297C138.125 24.6328 138.445 23.8359 138.695 23.0391C138.961 22.2266 139.172 21.4688 139.328 20.7656C139.5 20.0625 139.641 19.4453 139.75 18.9141C139.859 18.3828 139.969 18 140.078 17.7656C140.172 17.5781 140.305 17.4297 140.477 17.3203C140.664 17.1953 140.852 17.0938 141.039 17.0156C141.242 16.9375 141.43 16.8828 141.602 16.8516C141.789 16.8203 141.922 16.8047 142 16.8047C142.344 16.8047 142.57 16.875 142.68 17.0156C142.805 17.1562 142.867 17.4062 142.867 17.7656C142.867 17.9375 142.828 18.3672 142.75 19.0547C142.688 19.7266 142.609 20.5781 142.516 21.6094C142.438 22.625 142.359 23.7734 142.281 25.0547C142.219 26.3203 142.188 27.6328 142.188 28.9922C142.188 29.9766 142.234 30.7578 142.328 31.3359C142.422 31.8984 142.539 32.3203 142.68 32.6016C142.836 32.8828 143 33.0625 143.172 33.1406C143.359 33.2188 143.547 33.2578 143.734 33.2578C143.984 33.2578 144.266 33.1484 144.578 32.9297C144.891 32.7109 145.258 32.3281 145.68 31.7812C146.102 31.2188 146.586 30.4688 147.133 29.5312C147.68 28.5781 148.32 27.375 149.055 25.9219L149.312 25.4297L150.273 26.1562L150.016 26.6484C149.422 27.8047 148.828 28.9453 148.234 30.0703C147.656 31.1953 147.062 32.1953 146.453 33.0703C145.859 33.9453 145.258 34.6562 144.648 35.2031C144.039 35.7344 143.43 36 142.82 36C142.18 36 141.625 35.875 141.156 35.625C140.703 35.3594 140.32 34.9297 140.008 34.3359C139.711 33.7422 139.484 32.9609 139.328 31.9922C139.188 31.0078 139.117 29.7969 139.117 28.3594C139.117 27.9531 139.117 27.5312 139.117 27.0938C139.117 26.6406 139.133 26.1719 139.164 25.6875H138.93ZM143.734 12C143.734 12.5469 143.547 13.0078 143.172 13.3828C142.812 13.7422 142.359 13.9219 141.812 13.9219C141.281 13.9219 140.828 13.7422 140.453 13.3828C140.078 13.0078 139.891 12.5469 139.891 12C139.891 11.4688 140.078 11.0156 140.453 10.6406C140.828 10.2656 141.281 10.0781 141.812 10.0781C142.359 10.0781 142.812 10.2656 143.172 10.6406C143.547 11.0156 143.734 11.4688 143.734 12ZM149.781 36.9609C149.781 36.6484 149.828 36.3281 149.922 36C150.016 35.6875 150.219 35.2734 150.531 34.7578C150.859 34.2422 151.336 33.5781 151.961 32.7656C152.602 31.9531 153.461 30.8906 154.539 29.5781L155.734 28.125C155.234 26.2969 154.852 24.8516 154.586 23.7891C154.336 22.7266 154.141 21.9297 154 21.3984C153.859 20.8516 153.75 20.5078 153.672 20.3672C153.609 20.2266 153.516 20.1562 153.391 20.1562C153.266 20.1562 153.125 20.2891 152.969 20.5547C152.828 20.8047 152.633 21.1797 152.383 21.6797C152.148 22.1797 151.859 22.8047 151.516 23.5547C151.172 24.3047 150.758 25.1719 150.273 26.1562L150.039 26.6484L149.078 25.9219L149.312 25.4297C149.891 24.2578 150.375 23.2344 150.766 22.3594C151.156 21.4844 151.492 20.7266 151.773 20.0859C152.055 19.4453 152.297 18.9141 152.5 18.4922C152.703 18.0703 152.914 17.7344 153.133 17.4844C153.352 17.2344 153.594 17.0625 153.859 16.9688C154.141 16.8594 154.484 16.8047 154.891 16.8047C155.234 16.8047 155.531 16.8984 155.781 17.0859C156.031 17.2734 156.281 17.6719 156.531 18.2812C156.781 18.875 157.062 19.7422 157.375 20.8828C157.688 22.0078 158.086 23.5234 158.57 25.4297C158.961 24.9297 159.352 24.3984 159.742 23.8359C160.148 23.2734 160.508 22.7109 160.82 22.1484C161.148 21.5859 161.406 21.0469 161.594 20.5312C161.797 20 161.898 19.5234 161.898 19.1016C161.898 18.8359 161.867 18.6094 161.805 18.4219C161.742 18.2188 161.672 18.0547 161.594 17.9297C161.516 17.7734 161.422 17.6406 161.312 17.5312L161.781 16.8047C162.188 16.8203 162.547 16.8906 162.859 17.0156C163.125 17.125 163.375 17.2969 163.609 17.5312C163.844 17.75 163.961 18.0625 163.961 18.4688C163.961 18.9375 163.836 19.4688 163.586 20.0625C163.352 20.6562 163.016 21.3047 162.578 22.0078C162.141 22.7109 161.617 23.4766 161.008 24.3047C160.398 25.1172 159.719 25.9766 158.969 26.8828C159.344 28.2891 159.688 29.4062 160 30.2344C160.312 31.0469 160.594 31.6719 160.844 32.1094C161.109 32.5312 161.352 32.8047 161.57 32.9297C161.805 33.0547 162.039 33.1172 162.273 33.1172C162.57 33.1172 162.883 32.9453 163.211 32.6016C163.555 32.2578 163.922 31.7734 164.312 31.1484C164.703 30.5078 165.125 29.75 165.578 28.875C166.031 27.9844 166.531 27 167.078 25.9219L167.312 25.4297L168.273 26.1562L168.039 26.6484C167.195 28.3203 166.461 29.75 165.836 30.9375C165.227 32.1094 164.656 33.0703 164.125 33.8203C163.594 34.5703 163.07 35.125 162.555 35.4844C162.039 35.8281 161.469 36 160.844 36C160.359 36 159.922 35.9375 159.531 35.8125C159.141 35.6875 158.758 35.3984 158.383 34.9453C158.023 34.4922 157.664 33.8281 157.305 32.9531C156.945 32.0781 156.555 30.8984 156.133 29.4141L155.125 30.6328C154.016 31.9453 153.219 33.0391 152.734 33.9141C152.25 34.7734 152.008 35.5 152.008 36.0938C152.008 36.5 152.055 36.8594 152.148 37.1719C152.258 37.4844 152.383 37.7344 152.523 37.9219L152.195 38.6484C151.977 38.6484 151.727 38.625 151.445 38.5781C151.164 38.5469 150.898 38.4688 150.648 38.3438C150.414 38.2188 150.211 38.0469 150.039 37.8281C149.867 37.6094 149.781 37.3203 149.781 36.9609Z" fill="url(#paint0_linear)"/>
<defs>
<linearGradient id="paint0_linear" x1="1" y1="17" x2="168" y2="17" gradientUnits="userSpaceOnUse">
<stop stop-color="#FF7A00"/>
<stop offset="0.272" stop-color="#FF0000"/>
<stop offset="0.596" stop-color="#D715AC"/>
<stop offset="1" stop-color="#0085FF"/>
</linearGradient>
</defs>
</svg>
